<svg xmlns="http://www.w3.org/2000/svg" viewBox="0 0 512 512"><path fill="#fff" d="M256 16C123.452 16 16 123.452 16 256s107.452 240 240 240 240-107.452 240-240S388.548 16 256 16zm0 18c122.626 0 222 99.374 222 222s-99.374 222-222 222S34 378.626 34 256 133.374 34 256 34zm0 48c-96.187 0-174 77.813-174 174s77.813 174 174 174 174-77.813 174-174S352.187 82 256 82zm0 18c86.265 0 156 69.735 156 156s-69.735 156-156 156S100 342.265 100 256s69.735-156 156-156zm0 48c-59.51 0-108 48.49-108 108s48.49 108 108 108 108-48.49 108-108-48.49-108-108-108zm0 18c49.588 0 90 40.412 90 90s-40.412 90-90 90-90-40.412-90-90 40.412-90 90-90zm0 48c-23.196 0-42 18.804-42 42s18.804 42 42 42 42-18.804 42-42-18.804-42-42-42zm0 18c13.274 0 24 10.726 24 24s-10.726 24-24 24-24-10.726-24-24 10.726-24 24-24z"/></svg>
