<svg xmlns="http://www.w3.org/2000/svg" viewBox="0 0 512 512">
  <path fill="#fff" d="M256 52l28 82h88l-71 51 27 83-72-52-72 52 27-83-71-51h88l28-82zm-132 236c-40.9 0-74 33.1-74 74s33.1 74 74 74c12.1 0 24.2-3.1 34.8-9.1l33.2 33.2 33.9-33.9-32.2-32.2c8.2-11.5 12.3-24.4 12.3-38 0-40.9-33.1-74-74-74zm264 0c-40.9 0-74 33.1-74 74s33.1 74 74 74 74-33.1 74-74-33.1-74-74-74zm-264 48c14.3 0 26 11.7 26 26s-11.7 26-26 26-26-11.7-26-26 11.7-26 26-26zm264 0c14.3 0 26 11.7 26 26s-11.7 26-26 26-26-11.7-26-26 11.7-26 26-26z"/>
</svg>
