<svg xmlns="http://www.w3.org/2000/svg" viewBox="0 0 512 512"><path fill="#fff" d="M256 23c-5.2 0-10.1.7-14.5 2L89 82.5c-3.6 1.1-6.6 5-8.3 11.2-1.7 6.3-2 14.5-.5 23.3 3 17.5 13.3 37.7 27 50.5l103 64.1-8.5 14.3-103.3-64.3C95 184 92.8 186.5 91.6 189c-1.4 2.7-2.1 5.4-2 7.7.2 4.6 3 7.3 12.8 12l121 63.3v16.9L99.3 223.2c-11.2-5.4-19.7-12.2-22.8-24.3L60 206.4l1 50c.1 6.3 6.3 12.5 16.9 17.3l130.8 56.8-7.1 15.3-131.2-57c-5.3-2.3-9.8-5-13.4-8v.1l-18.3-3.7 1 50c.2 6 4.5 11.8 12.9 16.6l192.2 98.6V495h22.4V443.4L459 345.6c8.5-4.8 12.8-10.6 13-16.6l1-50-18.4 3.7c-3.5 3-8 5.7-13.4 8l-131.1 57-7.2-15.3 130.8-56.8c10.7-4.8 16.8-11 17-17.3l1-50-16.6-7.5c-3.1 12.1-11.5 18.9-22.7 24.3L288.3 289v-16.9l121-63.3c9.8-4.7 12.6-7.4 12.8-12 .1-2.3-.5-5-2-7.7-1.2-2.5-3.4-5-6.8-7.4l-103.2 64.3-8.5-14.3L404.8 168c13.8-12.8 24-33 27-50.5 1.5-8.8 1.2-17-.4-23.3-1.7-6.2-4.8-10.1-8.4-11.2L270.4 25c-4.4-1.3-9.3-2-14.4-2zM128.6 93.7L256 56l127.4 37.7c-4 12.2-12.5 26.3-23.7 36.9l-3.7 3.5-97.3 50.2-4.5 2.1-5.5-2.1-96-50.2-3.4-3.5c-11.2-10.6-19.7-24.7-23.7-36.9zM256 79.6l-60 36 60 33.5 60-33.5-60-36z"/></svg>
