<svg xmlns="http://www.w3.org/2000/svg" viewBox="0 0 512 512"><path fill="#fff" d="M256 16c-21.813 0-42.752 7.845-58.572 22.24-15.82 14.393-26.185 35.086-28.537 60.45l-.31 3.337-2.58 2.133C120.6 142.62 97.31 200.34 97.31 256c0 87.348 70.94 158.69 158.69 158.69 87.348 0 158.69-70.94 158.69-158.69 0-55.657-23.29-113.38-68.69-151.84l-2.58-2.133-.31-3.338c-2.35-25.363-12.717-46.056-28.537-60.45C299.36 24.24 278.415 16.4 256.602 16.4zm0 18.69c17.186 0 33.25 6.146 45.73 17.5 10.836 9.86 18.673 23.812 22.07 41.088C302.51 78.68 279.72 69.31 256 69.31s-46.508 9.37-67.8 23.968c3.398-17.276 11.234-31.228 22.07-41.088 12.48-11.354 28.544-17.5 45.73-17.5zm0 53.31c-92.784 0-168 75.216-168 168S163.216 424 256 424s168-75.216 168-168-75.216-168-168-168zm0 18c82.843 0 150 67.157 150 150s-67.157 150-150 150-150-67.157-150-150 67.157-150 150-150zm-9 26v73.375l-51.484 51.484 12.968 12.97L256 222.31l47.516 47.516 12.968-12.97L265 205.376V132h-18zM155.69 432.05C101.47 463.408 64.32 480 25 480v18c46.483 0 87.26-18.698 142.49-50.967A178.58 178.58 0 0 1 155.69 432.05zM487 480c-39.32 0-76.47-16.59-130.69-47.95a178.58 178.58 0 0 1-11.8 14.983C399.74 479.302 440.517 498 487 498v-18z"/></svg>
