<svg xmlns="http://www.w3.org/2000/svg" viewBox="0 0 512 512">
  <path fill="#fff" d="M356 64l76 76-34 34-18-18-68 68 44 44-34 34-45-45-80 80h43c24.1 0 45.4 15.4 53 38.2L309 432h71v48H132v-48h71l15.8-56.8c7.6-22.8 28.9-38.2 53-38.2h10l90-90-44-44 34-34 44 44 34-34 34 34-34 34-33.4-33.4-65.4 65.4 41.3 41.3-34 34-41.3-41.3-50.1 50.1h84.4L380 270 244 134l34-34 44 44 34-34zM124 384c-35.3 0-64 28.7-64 64h48c0-8.8 7.2-16 16-16s16 7.2 16 16h48c0-35.3-28.7-64-64-64zm264 0c-35.3 0-64 28.7-64 64h48c0-8.8 7.2-16 16-16s16 7.2 16 16h48c0-35.3-28.7-64-64-64z"/>
</svg>
