<svg xmlns="http://www.w3.org/2000/svg" viewBox="0 0 512 512">
  <path fill="#fff" d="M160 40h192v48h-20v52c0 34.6 13.7 67.7 38.1 92.1l32 32c24.4 24.4 38.1 57.5 38.1 92.1 0 72.8-59.2 132-132 132h-104c-72.8 0-132-59.2-132-132 0-34.6 13.7-67.7 38.1-92.1l32-32c24.4-24.4 38.1-57.5 38.1-92.1V88h-20V40zm68 48v52c0 47.4-18.8 92.8-52.3 126.3l-32 32c-15.3 15.3-23.7 35.6-23.7 57.3 0 46.3 37.7 84 84 84h104c46.3 0 84-37.7 84-84 0-21.7-8.4-42-23.7-57.3l-32-32C302.8 232.8 284 187.4 284 140V88h-56zm12 128l-72 120h176l-72-120-16 26-16-26z"/>
</svg>
