<svg xmlns="http://www.w3.org/2000/svg" viewBox="0 0 512 512"><path fill="#fff" d="M242.025 14.992c-21.17.24-45.24 3.833-55.994 18.963-5.44 7.657-4.03 20.15 9.65 30.35 4.45-2.08 9.23-3.89 14.358-5.33 27.754-7.8 55.397-2.45 76.023 12.393 5.074-8.387 9.39-18.22 11.793-30.45-1.367-10.766-6.39-17.9-14.658-22.115-7.22-3.68-18.72-3.697-30.744-3.764-3.498-.023-6.955-.023-10.43-.045zm21.11 60.07c-6.33 0-12.89.676-19.575 2.553-18.73 5.264-33.53 19.263-39.768 37.18-6.237 17.918-2.923 38.77 11.393 55.1l.45.51.363.57c18.87 30.19 8.506 59.72 5.133 68.56 9.23-.777 18.37-3.36 27.03-7.97l.033-.017c8.698-4.637 16.028-10.766 21.907-17.918 15.99-19.426 38.73-41.18 37.76-74.72-.456-15.77-6.174-31.95-17.19-44.08-8.02-8.834-17.99-15.308-28.893-18.52a57.63 57.63 0 0 0-18.643-1.25zm-26.793 171.34c-12.85 4.633-26.862 6.408-41.258 4.37l-2.46 7.64c-15.87 49.23 19.48 78.84 74.89 77.22l-4.83 9.69c-.38.76-34.23 68.51 20.73 152.69H265.7c-28.72-60.77-10.55-107.32 6.66-137.58-46.7 1.68-77.54-22.39-68.05-62.44a95.898 95.898 0 0 1-9.97-11.94l-19.6 9.8c-11.53 20.48-16.6 49.72 2.16 86.34l-16.15 7.87c-23-44.92-14.83-79.56 2.19-104.15l-30.79-2.57-1.42-17.92 28.49 2.26c3.17-3.77 6.72-7.22 10.62-10.37l-23.12-25.43 13.33-12.12 26.3 28.93zm78.35 3.213c-5.6 5.83-11.84 10.98-18.728 15.24v.018c-1.236.763-2.49 1.49-3.752 2.193-6.17 22.9 6.283 36.207 28.543 41.445a130.86 130.86 0 0 1-6.063-58.896z"/></svg>
